<svg id="グループ_2" data-name="グループ 2" xmlns="http://www.w3.org/2000/svg" width="19" height="19" viewBox="0 0 19 19">
  <metadata><?xpacket begin="﻿" id="W5M0MpCehiHzreSzNTczkc9d"?>
<x:xmpmeta xmlns:x="adobe:ns:meta/" x:xmptk="Adobe XMP Core 5.6-c140 79.160451, 2017/05/06-01:08:21        ">
   <rdf:RDF xmlns:rdf="http://www.w3.org/1999/02/22-rdf-syntax-ns#">
      <rdf:Description rdf:about=""/>
   </rdf:RDF>
</x:xmpmeta>
                                                                                                    
                                                                                                    
                                                                                                    
                                                                                                    
                                                                                                    
                                                                                                    
                                                                                                    
                                                                                                    
                                                                                                    
                                                                                                    
                                                                                                    
                                                                                                    
                                                                                                    
                                                                                                    
                                                                                                    
                                                                                                    
                                                                                                    
                                                                                                    
                                                                                                    
                                                                                                    
                           
<?xpacket end="w"?></metadata>
<defs>
    <style>
      .cls-1 {
        fill: #222;
        fill-rule: evenodd;
      }

      .cls-2 {
        fill: none;
        stroke: #222;
        stroke-width: 1px;
      }
    </style>
  </defs>
  <path id="シェイプ_7" data-name="シェイプ 7" class="cls-1" d="M1233.87,846.814m0,0,14.01,1.056a6.987,6.987,0,0,1-1.07,3.732c-0.03-.062-0.05-0.115-0.07-0.152a0.839,0.839,0,0,1-.08-0.905,1.323,1.323,0,0,0-.28-1.219,0.344,0.344,0,0,1,0-.511c0.16-.237-0.04-0.316-0.19-0.316a1.788,1.788,0,0,0-.48-0.235,5.58,5.58,0,0,1-1.22.2,2.752,2.752,0,0,1-1.14-1.062,4.321,4.321,0,0,1,.12-1.062c0.08-.118.51-0.866,0.67-1.1a1.4,1.4,0,0,1,.59-0.589c0.2-.04,1.1-0.2,1.38-0.276s0.23,0.276.31,0.433l0.16,0.02a0.978,0.978,0,0,1,.35.137,0.884,0.884,0,0,0,.4.179,7.091,7.091,0,0,1,.55,2.732m-14.01-1.056a7.035,7.035,0,0,1,3.37-5,0.251,0.251,0,0,0-.04.068,0.3,0.3,0,0,0,.17.055c0.06,0.008.13,0.011,0.2,0.014a0.413,0.413,0,0,1,.36.112,0.271,0.271,0,0,1-.03.262,0.286,0.286,0,0,0-.05.28,0.161,0.161,0,0,0,.08-0.057,0.723,0.723,0,0,0,.14-0.21,0.288,0.288,0,0,1,.27-0.2,0.6,0.6,0,0,0,.06-0.213,0.635,0.635,0,0,1,.39-0.571,0.43,0.43,0,0,1,.08-0.008,0.38,0.38,0,0,1,.33.331,0.19,0.19,0,0,0,.08.154l0.02,0c0.08-.024.16-0.055,0.23-0.083a0.729,0.729,0,0,1,.27-0.081,0.239,0.239,0,0,1,.17.066,0.465,0.465,0,0,1,.08.316,0.3,0.3,0,0,0,.05.218,0.317,0.317,0,0,1,.2.281,0.3,0.3,0,0,1-.24.256,2.871,2.871,0,0,1-.56.129,2.892,2.892,0,0,0-.35.069c-0.07.02-.08,0.055-0.05,0.222a0.4,0.4,0,0,1-.08.393,3.508,3.508,0,0,1-.6.306,5.649,5.649,0,0,0-.59.288,1.148,1.148,0,0,0-.32.334,1.236,1.236,0,0,1-.3.329l-0.02.012a0.515,0.515,0,0,0-.34.475c0,0.377-.02.717-0.22,0.717a0.27,0.27,0,0,1-.19-0.116,0.645,0.645,0,0,1-.2-0.559c-0.03,0-.07,0-0.12,0a1.211,1.211,0,0,1-.35-0.048,0.045,0.045,0,0,0-.02-0.006c0,0.01-.01.018-0.01,0.026a0.24,0.24,0,0,1-.2.185,0.418,0.418,0,0,1-.05,0,0.247,0.247,0,0,1-.1-0.022,0.176,0.176,0,0,0-.04-0.011,0.1,0.1,0,0,0-.06.021c-0.03.017-.06,0.031-0.09,0.045a0.452,0.452,0,0,0-.27.276c-0.05.089-.08,0.149-0.11,0.2a0.387,0.387,0,0,0-.08.259c0,0.291.08,0.421,0.26,0.433l0.04,0a0.26,0.26,0,0,0,.29-0.247,0.139,0.139,0,0,1,.13-0.155,0.323,0.323,0,0,1,.05.007,0.43,0.43,0,0,0,.16,0,0.464,0.464,0,0,1,.09-0.01,0.166,0.166,0,0,1,.15.07,0.349,0.349,0,0,1-.08.313c-0.02.032-.04,0.064-0.06,0.094a0.461,0.461,0,0,0-.09.184,0.1,0.1,0,0,0,.07.04,0.176,0.176,0,0,0,.07.012,0.424,0.424,0,0,0,.15-0.037,0.38,0.38,0,0,1,.12-0.028c0.03,0,.12.016,0.12,0.167a2.092,2.092,0,0,1-.02.229,0.507,0.507,0,0,0,.04.469,0.183,0.183,0,0,0,.08.023,0.174,0.174,0,0,0,.1-0.049,0.253,0.253,0,0,1,.15-0.067,0.147,0.147,0,0,1,.05.009,0.326,0.326,0,0,1,.16.124c0.01,0.008.01,0.017,0.02,0.024a1.425,1.425,0,0,0,.13-0.139,0.825,0.825,0,0,1,.43-0.329l0.02,0a1.125,1.125,0,0,1,.27.109,0.94,0.94,0,0,0,.25.107,0.547,0.547,0,0,0,.07,0h0.13a0.644,0.644,0,0,1,.54.2,2.716,2.716,0,0,1,.17.237,0.293,0.293,0,0,0,.18.187H1239c0.07-.006.13-0.013,0.2-0.013a0.481,0.481,0,0,1,.42.186,1.338,1.338,0,0,1,.17.331,0.263,0.263,0,0,1-.05.328,0.217,0.217,0,0,0-.09.1,0.1,0.1,0,0,0,.04.014,0.214,0.214,0,0,0,.05.006,0.5,0.5,0,0,0,.17-0.041,0.58,0.58,0,0,1,.21-0.046l0.04,0a0.4,0.4,0,0,1,.24.153,0.293,0.293,0,0,0,.08.064c0.02,0,.06.008,0.11,0.012a1.373,1.373,0,0,1,.58.138,0.648,0.648,0,0,1,.35.5,0.927,0.927,0,0,1-.23.441,1.134,1.134,0,0,0-.22.376,2.981,2.981,0,0,1-.1.9,0.46,0.46,0,0,1-.39.409,0.638,0.638,0,0,0-.41.265,1.588,1.588,0,0,1-.18.542,2.536,2.536,0,0,0-.12.3,0.519,0.519,0,0,1-.3.376,0.1,0.1,0,0,1-.04,0l-0.03-.012a0.444,0.444,0,0,1-.11.453,0.511,0.511,0,0,1-.29.07h-0.04a0.438,0.438,0,0,1-.04.221,0.242,0.242,0,0,1-.11.1,0.189,0.189,0,0,1,.06.167,0.042,0.042,0,0,0-.01.032h0a7.146,7.146,0,0,1-1.18-.442h0a0.555,0.555,0,0,1-.07-0.269v-0.826a0.205,0.205,0,0,0-.05-0.1,0.539,0.539,0,0,1-.09-0.288v-1.18a7.054,7.054,0,0,1-.69-0.548,2.815,2.815,0,0,1-.18-0.434,2.071,2.071,0,0,1-.45-0.7c-0.02-.2,0-0.7,0-0.72a0.068,0.068,0,0,1,.03-0.056,1.737,1.737,0,0,0,.35-0.36c0-.076-0.02-0.453-0.02-0.567a0.231,0.231,0,0,0-.07-0.042c-0.07.045-.28,0.166-0.29,0.172a0.056,0.056,0,0,1-.04.011,0.06,0.06,0,0,1-.05-0.023,3.821,3.821,0,0,0-.4-0.362,0.362,0.362,0,0,1-.13-0.256,0.849,0.849,0,0,0-.04-0.111c-0.03-.006-0.09-0.013-0.15-0.019a1.322,1.322,0,0,1-.36-0.064,0.312,0.312,0,0,1-.12-0.166,0.35,0.35,0,0,0-.06-0.1,0.151,0.151,0,0,0-.03,0,0.82,0.82,0,0,0-.13.014,0.951,0.951,0,0,1-.13.013,0.13,0.13,0,0,1-.05-0.008,7.243,7.243,0,0,1-.69-0.4m11.56-4.279c-0.11-.1-0.23-0.195-0.35-0.287h0a1.525,1.525,0,0,1-.13.271,0.24,0.24,0,0,0-.04.217,3.291,3.291,0,0,0,.45-0.1A0.19,0.19,0,0,0,1245.43,842.535Zm0.85,0.89a6.149,6.149,0,0,0-.73-0.786c-0.1.084-.2,0.173-0.23,0.2-0.06.039-.26,0.1-0.33,0.138a0.823,0.823,0,0,0,.23.236,0.39,0.39,0,0,1-.12.353c-0.11.02-.66,0.02-0.66,0.02a3.222,3.222,0,0,0-.14.689,0.675,0.675,0,0,0,.45.177,2.445,2.445,0,0,0,.51-0.2l0.16-.354,0.31-.335a0.413,0.413,0,0,0,.32.02A1.225,1.225,0,0,1,1246.28,843.425Z" transform="translate(-1231.5 -838.5)"/>
  <circle id="楕円形_1" data-name="楕円形 1" class="cls-2" cx="9.5" cy="9.5" r="9"/>
</svg>
