<?xml version="1.0" encoding="utf-8"?>
<!-- Generator: Adobe Illustrator 22.1.0, SVG Export Plug-In . SVG Version: 6.00 Build 0)  -->
<svg version="1.1" id="レイヤー_1" xmlns="http://www.w3.org/2000/svg" xmlns:xlink="http://www.w3.org/1999/xlink" x="0px"
	 y="0px" viewBox="0 0 58 44" style="enable-background:new 0 0 58 44;" xml:space="preserve">
<style type="text/css">
	.st0{fill:#8F93B0;}
	.st1{fill:#009EA7;}
</style>
<path id="mandom" class="st0" d="M31,35.2V44h-0.7v-8.8h-1.9V44h-0.7v-9.5h5c0.5,0,0.9,0.4,0.9,0.9c0,0,0,0,0,0V44h-0.7v-8.8H31z
	 M37.4,43.3v-4.6h-2v4.6H37.4L37.4,43.3z M34.7,38.9c0-0.5,0.4-0.9,0.9-0.9h1.8v-2.8h-2.7v-0.7h2.4c0.5,0,0.9,0.4,0.9,0.9
	c0,0,0,0,0,0V44h-3.4V38.9z M42.4,35.4c0-0.5-0.4-0.9-0.9-0.9h-2.5V44h0.7v-8.8h2V44h0.7L42.4,35.4L42.4,35.4z M46.1,43.3v-8h-2v8
	H46.1z M43.4,35.4c0-0.5,0.4-0.9,0.9-0.9h1.8v-4.7h0.7V44h-3.4C43.4,44,43.4,35.4,43.4,35.4z M50.4,43.3v-8h-2v8L50.4,43.3
	L50.4,43.3z M47.7,34.5h2.5c0.5,0,0.9,0.4,0.9,0.9V44h-2.5c-0.5,0-0.9-0.4-0.9-0.9v0V34.5z M55.4,35.2V44h-0.7v-8.8h-1.9V44h-0.7
	v-9.5h5c0.5,0,0.9,0.4,0.9,0.9c0,0,0,0,0,0V44h-0.7v-8.8L55.4,35.2L55.4,35.2z"/>
<polygon class="st1" points="58,0 45.2,0 45.2,12.5 32.3,12.5 32.3,25 19.7,25 0,44 13,44 "/>
</svg>
