<svg xmlns="http://www.w3.org/2000/svg" width="147.966" height="38.969" viewBox="0 0 147.966 38.969">
  <metadata><?xpacket begin="﻿" id="W5M0MpCehiHzreSzNTczkc9d"?>
<x:xmpmeta xmlns:x="adobe:ns:meta/" x:xmptk="Adobe XMP Core 5.6-c140 79.160451, 2017/05/06-01:08:21        ">
   <rdf:RDF xmlns:rdf="http://www.w3.org/1999/02/22-rdf-syntax-ns#">
      <rdf:Description rdf:about=""/>
   </rdf:RDF>
</x:xmpmeta>
                                                                                                    
                                                                                                    
                                                                                                    
                                                                                                    
                                                                                                    
                                                                                                    
                                                                                                    
                                                                                                    
                                                                                                    
                                                                                                    
                                                                                                    
                                                                                                    
                                                                                                    
                                                                                                    
                                                                                                    
                                                                                                    
                                                                                                    
                                                                                                    
                                                                                                    
                                                                                                    
                           
<?xpacket end="w"?></metadata>
<defs>
    <style>
      .cls-1 {
        fill-rule: evenodd;
      }
    </style>
  </defs>
  <path id="シェイプ_1" data-name="シェイプ 1" class="cls-1" d="M1021.16,81.868c-1.14-.84-2.1-2.649-3.09-5.249C1017.44,74.94,1007.54,50,1007.54,50s-11.123,27.049-12.085,28.976a10.578,10.578,0,0,1-2.175,2.914c-0.237.22-.384,0.257-0.234,0.3h5.632c0.06,0,.131-0.047.011-0.167a3.421,3.421,0,0,1-.463-3.119c0.307-.745,2.314-5.71,2.314-5.71l11.41-.01s1.49,3.82,1.72,4.567a10.912,10.912,0,0,1,.34,1.287,3.2,3.2,0,0,1,.02.643,3.233,3.233,0,0,1-1.31,2.217c-0.26.162-.28,0.285-0.06,0.285,0.31,0,8.34-.022,8.66-0.019C1021.5,82.156,1021.46,82.084,1021.16,81.868Zm-19.8-10.934,5.03-12.532,4.74,12.513Zm62.67,7.788a3.27,3.27,0,0,1-1.82,3.125c-0.21.131-.33,0.263,0.03,0.263,0.33,0.006,11.89,0,11.89,0,2.26-.017,5.14-0.458,6.64-1.419a8.557,8.557,0,0,0,3.89-6.644c0.26-3.352-1.34-7.109-6.01-8.843,1.69-.582,5.22-5.167,2.39-9.93a9.119,9.119,0,0,0-7.29-4.03h-11.22l-0.28-.017c-0.41,0-.17.118,0.08,0.26a2.794,2.794,0,0,1,1.74,2.679l-0.04,24.56h0Zm4.76-14.358,0.01-10.956,3.58,0.016a5.753,5.753,0,0,1,5.54,5.731c-0.01,2.649-1.32,4.219-2.89,4.8a8.754,8.754,0,0,1-2.43.4l-4.02,0Zm-0.03,15.773,0.02-13.835s1.4-.018,4.24-0.016c4.02-.006,7.32,3.224,7.32,6.714,0,3.071-2.14,7.113-7.57,7.143h-4.22Zm44.19-28.929c0.18,0,.16.148-0.11,0.29a5.644,5.644,0,0,0-.81.775,8.67,8.67,0,0,0-.95,1.151c-1.84,3.068-14.9,30-17.07,32.966a5.667,5.667,0,0,1-3.93,2.57c-0.72,0-.9,0-1.6.007-0.66,0-.53-0.1-0.26-0.227a6.746,6.746,0,0,0,.87-0.508,8.593,8.593,0,0,0,1.01-.856,21.905,21.905,0,0,0,4.29-6.776s-9.68-24.193-10.03-25.119a9.469,9.469,0,0,0-2.63-3.837c-0.41-.276-0.76-0.387-0.07-0.391l7.79,0.02-0.04.156c-1.04.771-1.02,1.668-.66,2.89l8.21,20.9s9.6-18.519,10.16-19.756a4.3,4.3,0,0,0-.58-4.113c-0.12-.153.01-0.144,0.27-0.132Zm-133.064,1.48c-6.723,1.075-11.219,7.974-10.044,15.426,1.038,6.663,5.94,11.518,11.829,11.691l0.3,0.028a5.361,5.361,0,0,0,.707.02,21.152,21.152,0,0,0,4.386-.45h0c0-.908.018-7,0.016-7.376a5.524,5.524,0,0,0-.222-1.566,3.747,3.747,0,0,0-1.022-1.558c-0.41-.189-0.33-0.337.283-0.327,0,0,6.248,0,6.774,0s0.418,0.128.02,0.32a3.963,3.963,0,0,0-1.074,1.432,5.97,5.97,0,0,0-.38,1.942l-0.018,9.92h0l-9.6,0a30.276,30.276,0,0,1-5.756-.895,14.5,14.5,0,0,1-4.883-2.389h0c-3.383-2.36-5.713-6.318-6.079-11.739a15.776,15.776,0,0,1,3.653-11.165h0a16.031,16.031,0,0,1,12.3-5.778,17.35,17.35,0,0,1,10.588,3.114L991.652,58.4c0,0.117-.145.021-0.145,0.021-2.347-3.6-6.088-6.655-11.621-5.733h0ZM1048.36,82.73a13.417,13.417,0,0,0,1.47.052c5.58,0,10.18-3.3,10.93-7.612h0a7.328,7.328,0,0,0,.16-1.242,8.1,8.1,0,0,0-.34-2.359h0a7.269,7.269,0,0,0-2.79-3.9,10.626,10.626,0,0,0-1.22-.827h0a1.567,1.567,0,0,0-.33-0.223h0c-2.44-1.641-8.95-4.9-10.6-7.274-1.81-2.584.29-4.934,1.89-5.733a8.483,8.483,0,0,1,5.98-.294,10.63,10.63,0,0,1,5.35,3.814c0.16,0.23.26,0.189,0.27,0.037,0.01-.22.2-4.17,0.2-4.17a18.935,18.935,0,0,0-8.6-1.889c-0.06.005-.11,0.012-0.18,0.012h0c-5.32,0-9.63,3.46-9.63,7.71a7.419,7.419,0,0,0,2.8,5.652h0c1.85,1.35,3.72,2.526,5.72,3.729h0c1.41,0.871,2.27,1.375,3.45,2.114h0a8.015,8.015,0,0,1,.82.531h0a5,5,0,0,1,2.72,4.442c-0.01,2.766-2.52,5.136-5.85,5.5h0c-0.4.036-.78,0.058-1.18,0.069a10.469,10.469,0,0,1-8.57-4.627l-0.05-.094c-0.07-.026-0.12.063-0.14,0.341l-0.41,4.453a28.206,28.206,0,0,0,8.13,1.785h0Zm-18.73-3.537s-0.09,1.743,2.3,2.843l0.04,0.111-9.25.006,0.03-.107c2.42-1.107,2.32-2.851,2.32-2.851L1025.1,53.7h-6.66a4.355,4.355,0,0,0-3.7,2.134h-0.09l1.14-4.55h0l23.17-.025,1.15,4.561-0.09,0a4.3,4.3,0,0,0-3.69-2.119l-6.67-.009Z" transform="translate(-965.094 -50)"/>
</svg>
