<svg xmlns="http://www.w3.org/2000/svg" width="51" height="85" viewBox="0 0 51 85">
  <metadata><?xpacket begin="﻿" id="W5M0MpCehiHzreSzNTczkc9d"?>
<x:xmpmeta xmlns:x="adobe:ns:meta/" x:xmptk="Adobe XMP Core 5.6-c140 79.160451, 2017/05/06-01:08:21        ">
   <rdf:RDF xmlns:rdf="http://www.w3.org/1999/02/22-rdf-syntax-ns#">
      <rdf:Description rdf:about=""/>
   </rdf:RDF>
</x:xmpmeta>
                                                                                                    
                                                                                                    
                                                                                                    
                                                                                                    
                                                                                                    
                                                                                                    
                                                                                                    
                                                                                                    
                                                                                                    
                                                                                                    
                                                                                                    
                                                                                                    
                                                                                                    
                                                                                                    
                                                                                                    
                                                                                                    
                                                                                                    
                                                                                                    
                                                                                                    
                                                                                                    
                           
<?xpacket end="w"?></metadata>
<defs>
    <style>
      .cls-1 {
        fill: #222;
        fill-rule: evenodd;
      }
    </style>
  </defs>
  <path id="シェイプ_2" data-name="シェイプ 2" class="cls-1" d="M4375.12,327.761s-0.1,36.952-.1,36.739c-10.28,6.234-11.68,16.239-4.67,25.186,5.3,6.086,6.68,7.325,8.93,10.137,5.64,7.083,15.11,7.083,15.11,7.083s11.54,1.4,17.54-6.77c4.94-6.731,5.08-13.545,5.08-24.6,0-8.4-.47-13.66-0.47-16.929a5.727,5.727,0,0,0-5.69-5.761,5.641,5.641,0,0,0-4.25,1.958v-2.578a5.729,5.729,0,0,0-5.69-5.761,5.638,5.638,0,0,0-4.37,2.106,5.7,5.7,0,0,0-5.57-4.6,5.631,5.631,0,0,0-4.46,2.221v-18.44A5.7,5.7,0,1,0,4375.12,327.761Z" transform="translate(-4366 -322)"/>
</svg>
